HIERARCHY
ROOT root
{
	OFFSET 0.000000 0.000000 0.000000
	CHANNELS 6 Xposition Yposition Zposition Zrotation Yrotation Xrotation
	JOINT lhip
	{
		OFFSET 0.058581 -0.082280 -0.017664
		CHANNELS 3 Zrotation Yrotation Xrotation
		JOINT lknee
		{
			OFFSET 0.043451 -0.386469 0.008037
			CHANNELS 3 Zrotation Yrotation Xrotation
			JOINT lankle
			{
				OFFSET -0.014790 -0.426874 -0.037428
				CHANNELS 3 Zrotation Yrotation Xrotation
				JOINT ltoe
				{
					OFFSET 0.041054 -0.060286 0.122042
					CHANNELS 3 Zrotation Yrotation Xrotation
					End Site
					{
						OFFSET 0.000000 0.000000 0.000000
					}
				}
			}
		}
	}
	JOINT rhip
	{
		OFFSET -0.060310 -0.090513 -0.013543
		CHANNELS 3 Zrotation Yrotation Xrotation
		JOINT rknee
		{
			OFFSET -0.043257 -0.383688 -0.004843
			CHANNELS 3 Zrotation Yrotation Xrotation
			JOINT rankle
			{
				OFFSET 0.019056 -0.420046 -0.034562
				CHANNELS 3 Zrotation Yrotation Xrotation
				JOINT rtoe
				{
					OFFSET -0.034840 -0.062106 0.130323
					CHANNELS 3 Zrotation Yrotation Xrotation
					End Site
					{
						OFFSET 0.000000 0.000000 0.000000
					}
				}
			}
		}
	}
	JOINT lowerback
	{
		OFFSET 0.004439 0.124404 -0.038385
		CHANNELS 3 Zrotation Yrotation Xrotation
		JOINT upperback
		{
			OFFSET 0.004488 0.137956 0.026820
			CHANNELS 3 Zrotation Yrotation Xrotation
			JOINT chest
			{
				OFFSET -0.002265 0.056032 0.002855
				CHANNELS 3 Zrotation Yrotation Xrotation
				JOINT lowerneck
				{
					OFFSET -0.013390 0.211636 -0.033468
					CHANNELS 3 Zrotation Yrotation Xrotation
					JOINT upperneck
					{
						OFFSET 0.010113 0.088937 0.050410
						CHANNELS 3 Zrotation Yrotation Xrotation
						End Site
						{
							OFFSET 0.000000 0.000000 0.000000
						}
					}
				}
				JOINT lclavicle
				{
					OFFSET 0.071702 0.114000 -0.018898
					CHANNELS 3 Zrotation Yrotation Xrotation
					JOINT lshoulder
					{
						OFFSET 0.122921 0.045205 -0.019046
						CHANNELS 3 Zrotation Yrotation Xrotation
						JOINT lelbow
						{
							OFFSET 0.255332 -0.015649 -0.022946
							CHANNELS 3 Zrotation Yrotation Xrotation
							JOINT lwrist
							{
								OFFSET 0.265709 0.012698 -0.007375
								CHANNELS 3 Zrotation Yrotation Xrotation
								End Site
								{
									OFFSET 0.000000 0.000000 0.000000
								}
							}
						}
					}
				}
				JOINT rclavicle
				{
					OFFSET -0.082954 0.112472 -0.023707
					CHANNELS 3 Zrotation Yrotation Xrotation
					JOINT rshoulder
					{
						OFFSET -0.113228 0.046853 -0.008472
						CHANNELS 3 Zrotation Yrotation Xrotation
						JOINT relbow
						{
							OFFSET -0.260127 -0.014369 -0.031269
							CHANNELS 3 Zrotation Yrotation Xrotation
							JOINT rwrist
							{
								OFFSET -0.269108 0.006794 -0.006027
								CHANNELS 3 Zrotation Yrotation Xrotation
								End Site
								{
									OFFSET 0.000000 0.000000 0.000000
								}
							}
						}
					}
				}
			}
		}
	}
}
MOTION
Frames: 11
Frame Time: 0.033333
0.292200 -0.234950 0.871133 -100.842642 5.611883 88.412949 12.450119 6.854481 -36.198094 -6.687288 15.206226 63.472733 5.244519 20.399838 -31.641722 0.000000 -0.000000 0.000000 -6.790652 -12.805267 -41.927669 4.961422 -18.832389 76.749277 6.685841 0.448556 -12.005865 0.000000 -0.000000 0.000000 -3.318400 1.279674 45.656535 -4.358977 -5.426798 -16.774982 1.754245 -0.420442 -2.978671 -24.128691 27.303034 -28.109334 -5.971914 24.790092 -25.297262 16.925576 -11.206049 -11.127079 -10.732948 -4.276824 -32.239300 15.649795 -6.372466 -57.518881 4.850315 -9.726322 -40.521068 -12.371958 7.762432 -8.368945 38.045834 12.627042 -16.391028 -19.277011 3.476872 -55.344152 11.902413 12.575427 -48.912330 
0.299143 -0.222649 0.867670 -101.998004 6.251651 87.425797 14.033614 9.130232 -34.908305 -6.495664 14.584291 62.935570 6.160257 19.902885 -32.343966 0.000000 -0.000000 0.000000 -9.029969 -14.126019 -44.748491 5.978584 -19.359191 80.955866 11.840062 6.832494 0.231464 0.000000 -0.000000 0.000000 -2.818271 0.773448 48.364545 -5.155462 -4.967406 -16.660704 1.253323 0.000991 -3.653371 -24.269024 27.434640 -25.577825 -5.803433 25.219305 -24.704529 15.908385 -12.240406 -10.935941 -12.400618 -4.540689 -31.884599 16.071878 -6.472776 -57.339219 4.261897 -9.548366 -39.790772 -11.928542 9.107619 -8.091575 39.841159 14.090254 -16.571446 -18.226431 3.102157 -55.555742 11.792800 11.936762 -48.236003 
0.305949 -0.210543 0.867967 -102.417806 7.364512 86.708301 16.333171 10.403651 -34.372985 -6.890276 13.757317 62.861071 5.926221 19.096374 -32.249889 0.000000 -0.000000 0.000000 -10.697313 -14.543703 -45.730490 4.725864 -19.757603 83.252319 11.814929 5.459511 1.149558 0.000000 -0.000000 0.000000 -2.079051 -0.448668 50.742011 -5.785527 -4.425189 -16.859088 0.741198 0.530761 -3.932956 -24.574708 27.064132 -23.303913 -5.380191 25.776320 -23.559001 14.595945 -13.201441 -10.216351 -13.853621 -5.209072 -32.040522 16.819558 -6.897383 -56.964498 5.183550 -8.663814 -40.000034 -11.147030 10.830331 -7.632184 41.288448 15.537481 -16.608222 -17.989798 2.818430 -55.708330 10.702635 11.299429 -47.958125 
0.315181 -0.195827 0.871700 -102.034558 7.367915 86.748278 17.675275 10.538885 -34.818110 -6.757572 13.801890 62.248570 5.001599 17.919816 -30.723646 0.000000 -0.000000 0.000000 -12.309920 -14.490118 -46.063743 0.309810 -18.567947 84.569139 7.401412 -1.738837 -2.431906 0.000000 -0.000000 0.000000 -2.420298 -0.949469 52.156163 -6.330209 -4.554581 -16.602500 0.720124 0.551841 -3.837659 -24.633259 26.013485 -21.554099 -4.819398 26.767948 -22.581194 12.988711 -14.433957 -9.471394 -13.878861 -5.961612 -32.900161 16.858541 -6.665872 -56.882867 6.717544 -7.637045 -39.507380 -9.894575 13.200125 -6.971309 42.092535 16.465382 -15.542443 -17.683462 2.500498 -55.954222 9.723213 10.596548 -46.878627 
0.325828 -0.177323 0.876718 -101.520701 6.777798 87.848712 18.285976 11.136004 -35.913684 -6.578501 13.611711 60.633090 4.747121 16.465653 -28.494705 0.000000 -0.000000 0.000000 -13.437518 -14.116460 -46.392421 -2.852125 -16.552542 83.013676 3.693873 -7.834602 -0.888146 0.000000 -0.000000 0.000000 -3.353523 -0.865514 52.298073 -6.674180 -4.620374 -16.540267 0.723996 0.188989 -3.482180 -24.250190 25.395403 -20.251500 -3.805125 27.718081 -20.372565 11.362899 -15.127685 -8.057325 -13.920939 -7.257557 -33.039165 16.893315 -6.714809 -56.294387 6.956506 -7.123327 -40.063957 -8.480244 14.392278 -6.433876 43.406975 18.177746 -13.643858 -17.847286 2.404591 -56.455267 8.998585 10.312388 -46.750096 
0.336580 -0.157252 0.882492 -100.855733 6.051710 89.215735 18.774955 11.748996 -36.933030 -6.485110 13.645308 58.286029 4.539158 14.890950 -26.011658 0.000000 -0.000000 0.000000 -13.699374 -13.327841 -45.252540 -3.482575 -14.718118 77.542737 3.345907 -9.692739 4.103589 0.000000 -0.000000 0.000000 -4.020967 -0.610753 51.976066 -6.958299 -5.057310 -16.149830 0.599925 -0.125175 -3.385580 -23.710408 25.087715 -19.228581 -2.509569 28.290959 -17.712143 10.283031 -15.618586 -7.114157 -14.451526 -8.851183 -33.064581 17.007589 -6.495915 -55.790469 7.027011 -7.235193 -40.741119 -7.646052 15.076844 -6.171631 45.727788 20.009096 -11.607711 -18.249084 2.327789 -56.099645 9.350298 10.438902 -47.109082 
0.347148 -0.135340 0.888685 -100.487404 5.415797 90.330198 19.714168 13.188328 -37.441322 -6.961768 13.744067 55.779067 3.365344 12.996859 -23.331943 0.000000 -0.000000 0.000000 -12.368682 -12.229282 -43.403205 0.029520 -12.409584 74.487816 5.213389 -3.026347 -1.731556 0.000000 -0.000000 0.000000 -5.055665 0.173876 51.682144 -6.656715 -5.633158 -15.258329 0.476446 0.013789 -3.941418 -22.772070 27.154555 -17.859170 -1.524399 26.938341 -15.069246 9.837745 -16.657105 -7.372861 -15.256422 -9.398403 -32.334928 16.677340 -6.370913 -55.059040 5.839440 -7.872003 -39.936711 -6.572331 16.322860 -5.617387 46.894257 21.442033 -11.536513 -18.222237 2.304238 -54.592550 9.938173 10.758155 -47.323964 
0.358331 -0.112336 0.893953 -99.317157 4.825805 91.054577 20.480459 13.947754 -37.994920 -7.455007 13.587218 53.308177 2.469714 11.469832 -19.990967 0.000000 -0.000000 0.000000 -11.104830 -12.540395 -42.404270 1.211774 -13.105940 71.990439 4.635366 -3.221908 -5.125419 0.000000 -0.000000 0.000000 -5.560145 0.355325 52.066637 -6.590387 -6.236132 -15.237411 0.407344 -0.248538 -3.610693 -21.974842 27.829053 -17.437563 -0.152984 26.239442 -12.069939 8.946544 -17.182360 -7.295302 -15.560639 -10.630773 -31.668551 16.804267 -6.819628 -54.508420 6.431707 -7.696567 -40.453891 -5.419747 17.205502 -5.342195 47.678415 22.868778 -10.695059 -17.976420 2.529428 -53.643102 8.880598 10.450126 -47.063048 
0.370600 -0.091573 0.899828 -98.013854 4.120576 91.925651 20.551851 13.832411 -39.219101 -7.065441 13.817067 51.110529 1.512766 10.842074 -15.738596 0.000000 -0.000000 0.000000 -10.640913 -13.293919 -42.772658 0.543562 -15.288852 71.293025 3.851547 -2.295319 -5.521744 0.000000 -0.000000 0.000000 -5.584553 0.334437 52.504933 -6.652139 -6.927716 -14.953273 0.296779 -0.554424 -3.700365 -21.519554 27.799803 -16.453496 0.685215 25.786405 -10.904911 8.096676 -18.072630 -7.246875 -16.244079 -11.707800 -30.799634 17.381703 -7.162610 -54.355903 6.088331 -7.417830 -40.657624 -4.968226 18.063748 -5.287557 48.884694 23.721041 -9.603047 -17.862430 3.329879 -51.713776 8.666911 10.215938 -46.455737 
0.382639 -0.072528 0.905143 -97.538127 3.677709 92.517426 20.639499 14.211444 -40.489659 -5.362005 15.369632 50.174607 0.323939 10.765968 -11.297356 0.000000 -0.000000 0.000000 -9.806043 -13.068599 -43.281441 0.490751 -15.700003 70.224637 3.949411 0.023886 -5.162165 0.000000 -0.000000 0.000000 -5.745237 0.671637 52.928107 -6.517245 -7.182717 -14.374873 0.239689 -0.661854 -4.197724 -20.899388 28.033348 -15.686054 1.499065 25.012806 -9.416239 7.337125 -18.961240 -7.244300 -17.088017 -12.640796 -29.843630 17.649474 -7.282684 -54.021725 5.385065 -7.380030 -40.577251 -4.059820 18.862322 -5.284941 49.476101 25.089155 -9.351168 -18.441482 3.658658 -52.089390 8.464267 10.162960 -47.012305 
0.393603 -0.055357 0.908627 -97.324579 3.246765 92.621667 20.558519 14.482290 -41.580928 -3.990099 17.424002 50.447901 0.041093 11.637741 -8.441212 0.000000 -0.000000 0.000000 -8.687869 -11.840549 -43.072024 1.552279 -14.863734 68.424394 3.166242 0.519723 -6.715627 0.000000 -0.000000 0.000000 -6.170395 0.959997 53.289140 -6.340781 -7.105829 -13.975484 0.407311 -0.574394 -4.311181 -20.224101 27.791187 -15.089838 2.390175 24.582590 -7.756891 6.379098 -19.605515 -7.097555 -18.126618 -13.911929 -28.960143 17.763458 -7.699830 -54.224796 5.765518 -6.843142 -40.494124 -3.268291 19.714391 -5.024809 49.921352 26.508975 -8.851395 -19.112681 4.038508 -52.585527 8.110823 9.620676 -47.420496 
